<svg id="visual" viewBox="0 0 960 540" width="960" height="540" xmlns="http://www.w3.org/2000/svg" xmlns:xlink="http://www.w3.org/1999/xlink" version="1.1"><path d="M0 403L13.3 405.3C26.7 407.7 53.3 412.3 80 418.3C106.7 424.3 133.3 431.7 160 437.3C186.7 443 213.3 447 240 442.8C266.7 438.7 293.3 426.3 320 421.2C346.7 416 373.3 418 400 422.8C426.7 427.7 453.3 435.3 480 434.2C506.7 433 533.3 423 560 416.7C586.7 410.3 613.3 407.7 640 415.2C666.7 422.7 693.3 440.3 720 442.7C746.7 445 773.3 432 800 423.2C826.7 414.3 853.3 409.7 880 415.8C906.7 422 933.3 439 946.7 447.5L960 456L960 541L946.7 541C933.3 541 906.7 541 880 541C853.3 541 826.7 541 800 541C773.3 541 746.7 541 720 541C693.3 541 666.7 541 640 541C613.3 541 586.7 541 560 541C533.3 541 506.7 541 480 541C453.3 541 426.7 541 400 541C373.3 541 346.7 541 320 541C293.3 541 266.7 541 240 541C213.3 541 186.7 541 160 541C133.3 541 106.7 541 80 541C53.3 541 26.7 541 13.3 541L0 541Z" fill="#0066FF" stroke-linecap="round" stroke-linejoin="miter"></path></svg>