<svg id="visual" viewBox="0 0 960 540" width="960" height="540" xmlns="http://www.w3.org/2000/svg" xmlns:xlink="http://www.w3.org/1999/xlink" version="1.1"><path d="M0 135L13.3 132.7C26.7 130.3 53.3 125.7 80 119.7C106.7 113.7 133.3 106.3 160 100.7C186.7 95 213.3 91 240 95.2C266.7 99.3 293.3 111.7 320 116.8C346.7 122 373.3 120 400 115.2C426.7 110.3 453.3 102.7 480 103.8C506.7 105 533.3 115 560 121.3C586.7 127.7 613.3 130.3 640 122.8C666.7 115.3 693.3 97.7 720 95.3C746.7 93 773.3 106 800 114.8C826.7 123.7 853.3 128.3 880 122.2C906.7 116 933.3 99 946.7 90.5L960 82L960 0L946.7 0C933.3 0 906.7 0 880 0C853.3 0 826.7 0 800 0C773.3 0 746.7 0 720 0C693.3 0 666.7 0 640 0C613.3 0 586.7 0 560 0C533.3 0 506.7 0 480 0C453.3 0 426.7 0 400 0C373.3 0 346.7 0 320 0C293.3 0 266.7 0 240 0C213.3 0 186.7 0 160 0C133.3 0 106.7 0 80 0C53.3 0 26.7 0 13.3 0L0 0Z" fill="#0066FF" stroke-linecap="round" stroke-linejoin="miter"></path></svg>